<?xml version="1.0" encoding="utf-8"?>
<!-- Generator: Adobe Illustrator 22.0.1, SVG Export Plug-In . SVG Version: 6.00 Build 0)  -->
<svg version="1.1" id="Layer_1" xmlns="http://www.w3.org/2000/svg" xmlns:xlink="http://www.w3.org/1999/xlink" x="0px" y="0px"
	 viewBox="0 0 61.6 51" style="enable-background:new 0 0 61.6 51;" xml:space="preserve">
<style type="text/css">
	.st0{fill:#FBB040;}
</style>
<path class="st0" d="M59.9,6.5c-1.3,0.6-2.7,1.1-4.1,1.4c1.6-1.5,2.7-3.3,3.4-5.4l0,0c0.2-0.6-0.5-1.1-1-0.8l0,0
	c-2,1.2-4.1,2.1-6.3,2.6c-0.1,0-0.3,0-0.4,0c-0.4,0-0.8-0.2-1.1-0.4c-2.4-2.1-5.4-3.2-8.6-3.2c-1.4,0-2.7,0.2-4.1,0.6
	c-4.2,1.3-7.4,4.8-8.5,9c-0.4,1.6-0.5,3.2-0.3,4.8c0,0.2-0.1,0.3-0.1,0.4c-0.1,0.1-0.2,0.2-0.4,0.2c0,0,0,0,0,0
	c-9.2-0.9-17.5-5.3-23.3-12.5l0,0C4.8,2.8,4.2,2.9,3.9,3.3l0,0c-1.1,2-1.8,4.2-1.8,6.5c0,3.5,1.4,6.8,3.9,9.2c-1-0.2-2-0.6-3-1.1
	l0,0c-0.4-0.2-1,0.1-1,0.6l0,0c-0.1,5.2,3,9.9,7.6,11.9c-0.1,0-0.2,0-0.3,0c-0.7,0-1.5-0.1-2.2-0.2l0,0c-0.5-0.1-0.9,0.4-0.8,0.9
	l0,0c1.5,4.6,5.5,8,10.2,8.8c-4,2.7-8.6,4.1-13.4,4.1l-1.5,0c-0.5,0-0.9,0.3-1,0.7c-0.1,0.4,0.1,0.9,0.5,1.1
	c5.4,3.1,11.6,4.8,17.9,4.8c5.5,0,10.6-1.1,15.3-3.2c4.2-2,8-4.8,11.2-8.4c2.9-3.3,5.2-7.2,6.8-11.4c1.5-4.1,2.3-8.4,2.3-12.5v-0.2
	c0-0.7,0.3-1.3,0.8-1.7c2-1.6,3.7-3.5,5.1-5.6l0,0C61.1,6.9,60.5,6.2,59.9,6.5L59.9,6.5z"/>
</svg>
