<?xml version="1.0" encoding="utf-8"?>
<!-- Generator: Adobe Illustrator 22.0.1, SVG Export Plug-In . SVG Version: 6.00 Build 0)  -->
<svg version="1.1" id="Layer_1" xmlns="http://www.w3.org/2000/svg" xmlns:xlink="http://www.w3.org/1999/xlink" x="0px" y="0px"
	 viewBox="0 0 50.7 50.8" style="enable-background:new 0 0 50.7 50.8;" xml:space="preserve">
<style type="text/css">
	.st0{fill:#FBB040;}
</style>
<g>
	<g>
		<path class="st0" d="M25.3,30.5c2.8,0,5-2.2,5-5c0-1.1-0.4-2.1-0.9-2.9c-0.9-1.3-2.4-2.1-4.1-2.1c-1.7,0-3.1,0.8-4.1,2.1
			c-0.6,0.8-0.9,1.8-0.9,2.9C20.3,28.3,22.6,30.5,25.3,30.5L25.3,30.5z M25.3,30.5"/>
		<path class="st0" d="M36.3,19.4v-4.8h-0.6l-4.2,0l0,4.8L36.3,19.4z M36.3,19.4"/>
		<path class="st0" d="M25.3,0.6c-13.8,0-25,11.2-25,25c0,13.8,11.2,25,25,25c13.8,0,25-11.2,25-25C50.3,11.8,39.1,0.6,25.3,0.6
			L25.3,0.6z M39.5,22.6v11.6c0,3-2.5,5.5-5.5,5.5H16.6c-3,0-5.5-2.5-5.5-5.5V16.8c0-3,2.5-5.5,5.5-5.5h17.4c3,0,5.5,2.5,5.5,5.5
			V22.6z M39.5,22.6"/>
		<path class="st0" d="M33.1,25.5c0,4.3-3.5,7.8-7.8,7.8c-4.3,0-7.8-3.5-7.8-7.8c0-1,0.2-2,0.6-2.9h-4.2v11.6c0,1.5,1.2,2.7,2.7,2.7
			h17.4c1.5,0,2.7-1.2,2.7-2.7V22.6h-4.2C32.9,23.5,33.1,24.5,33.1,25.5L33.1,25.5z M33.1,25.5"/>
	</g>
</g>
</svg>
