<?xml version="1.0" encoding="utf-8"?>
<!-- Generator: Adobe Illustrator 22.0.1, SVG Export Plug-In . SVG Version: 6.00 Build 0)  -->
<svg version="1.1" id="Layer_1" xmlns="http://www.w3.org/2000/svg" xmlns:xlink="http://www.w3.org/1999/xlink" x="0px" y="0px"
	 viewBox="0 0 51.6 51" style="enable-background:new 0 0 51.6 51;" xml:space="preserve">
<style type="text/css">
	.st0{fill:#FBB040;}
</style>
<path class="st0" d="M43.7,0.7H7.4c-3.7,0-6.7,3-6.7,6.7v36.3c0,3.7,3,6.7,6.7,6.7h17.9l0-17.8h-4.6c-0.6,0-1.1-0.5-1.1-1.1l0-5.7
	c0-0.6,0.5-1.1,1.1-1.1h4.6v-5.5c0-6.4,3.9-9.9,9.6-9.9h4.7c0.6,0,1.1,0.5,1.1,1.1v4.8c0,0.6-0.5,1.1-1.1,1.1l-2.9,0
	c-3.1,0-3.7,1.5-3.7,3.7v4.8h6.8c0.7,0,1.2,0.6,1.1,1.2l-0.7,5.7c-0.1,0.5-0.5,1-1.1,1h-6.1l0,17.8h10.6c3.7,0,6.7-3,6.7-6.7V7.4
	C50.4,3.7,47.4,0.7,43.7,0.7z"/>
</svg>
